<svg width="72" height="72" viewBox="0 0 72 72" fill="none" xmlns="http://www.w3.org/2000/svg">
<path d="M15.5 64.3713C21.2616 68.5417 28.3437 71 36 71C55.33 71 71 55.33 71 36C71 16.67 55.33 1 36 1" stroke="#261F12" stroke-width="2"/>
<path d="M15.5 64.3713C6.71511 58.0126 1 47.6737 1 36C1 16.67 16.67 1 36 1" stroke="#E7E1DA" stroke-width="2"/>
<path d="M36 37.3332C34.8889 37.3332 33.9445 36.9443 33.1667 36.1665C32.3889 35.3887 32 34.4443 32 33.3332C32 32.2221 32.3889 31.2776 33.1667 30.4998C33.9445 29.7221 34.8889 29.3332 36 29.3332C37.1112 29.3332 38.0556 29.7221 38.8334 30.4998C39.6112 31.2776 40 32.2221 40 33.3332C40 34.4443 39.6112 35.3887 38.8334 36.1665C38.0556 36.9443 37.1112 37.3332 36 37.3332ZM28 50.6665V40.3665C27.1556 39.4332 26.5 38.3665 26.0334 37.1665C25.5667 35.9665 25.3334 34.6887 25.3334 33.3332C25.3334 30.3554 26.3667 27.8332 28.4334 25.7665C30.5 23.6998 33.0223 22.6665 36 22.6665C38.9778 22.6665 41.5 23.6998 43.5667 25.7665C45.6334 27.8332 46.6667 30.3554 46.6667 33.3332C46.6667 34.6887 46.4334 35.9665 45.9667 37.1665C45.5 38.3665 44.8445 39.4332 44 40.3665V50.6665L36 47.9998L28 50.6665ZM36 41.3332C38.2223 41.3332 40.1112 40.5554 41.6667 38.9998C43.2223 37.4443 44 35.5554 44 33.3332C44 31.1109 43.2223 29.2221 41.6667 27.6665C40.1112 26.1109 38.2223 25.3332 36 25.3332C33.7778 25.3332 31.8889 26.1109 30.3334 27.6665C28.7778 29.2221 28 31.1109 28 33.3332C28 35.5554 28.7778 37.4443 30.3334 38.9998C31.8889 40.5554 33.7778 41.3332 36 41.3332ZM30.6667 46.6998L36 45.3332L41.3334 46.6998V42.5665C40.5556 43.011 39.7167 43.3609 38.8167 43.6165C37.9167 43.8721 36.9778 43.9998 36 43.9998C35.0223 43.9998 34.0834 43.8721 33.1834 43.6165C32.2834 43.3609 31.4445 43.011 30.6667 42.5665V46.6998Z" fill="#261F12"/>
</svg>
