<svg width="72" height="72" viewBox="0 0 72 72" fill="none" xmlns="http://www.w3.org/2000/svg">
<path d="M36 1C51.7934 1 65.1437 11.4607 69.5 25.8315" stroke="#261F12" stroke-width="2"/>
<path d="M36 1C16.67 1 1 16.67 1 36C1 55.33 16.67 71 36 71C55.33 71 71 55.33 71 36C71 32.4635 70.4755 29.0495 69.5 25.8315" stroke="#E7E1DA" stroke-width="2"/>
<path d="M22.6667 47.9998V45.3332H34.6667V30.4332C34.0889 30.2332 33.5889 29.9221 33.1667 29.4998C32.7444 29.0776 32.4333 28.5776 32.2333 27.9998H28L32 37.3332C32 38.4443 31.5444 39.3887 30.6333 40.1665C29.7222 40.9443 28.6222 41.3332 27.3333 41.3332C26.0444 41.3332 24.9444 40.9443 24.0333 40.1665C23.1222 39.3887 22.6667 38.4443 22.6667 37.3332L26.6667 27.9998H24V25.3332H32.2333C32.5 24.5554 32.9778 23.9165 33.6667 23.4165C34.3556 22.9165 35.1333 22.6665 36 22.6665C36.8667 22.6665 37.6444 22.9165 38.3333 23.4165C39.0222 23.9165 39.5 24.5554 39.7667 25.3332H48V27.9998H45.3333L49.3333 37.3332C49.3333 38.4443 48.8778 39.3887 47.9667 40.1665C47.0556 40.9443 45.9556 41.3332 44.6667 41.3332C43.3778 41.3332 42.2778 40.9443 41.3667 40.1665C40.4556 39.3887 40 38.4443 40 37.3332L44 27.9998H39.7667C39.5667 28.5776 39.2556 29.0776 38.8333 29.4998C38.4111 29.9221 37.9111 30.2332 37.3333 30.4332V45.3332H49.3333V47.9998H22.6667ZM42.1667 37.3332H47.1667L44.6667 31.5332L42.1667 37.3332ZM24.8333 37.3332H29.8333L27.3333 31.5332L24.8333 37.3332ZM36 27.9998C36.3778 27.9998 36.6944 27.8721 36.95 27.6165C37.2056 27.3609 37.3333 27.0443 37.3333 26.6665C37.3333 26.2887 37.2056 25.9721 36.95 25.7165C36.6944 25.4609 36.3778 25.3332 36 25.3332C35.6222 25.3332 35.3056 25.4609 35.05 25.7165C34.7944 25.9721 34.6667 26.2887 34.6667 26.6665C34.6667 27.0443 34.7944 27.3609 35.05 27.6165C35.3056 27.8721 35.6222 27.9998 36 27.9998Z" fill="#261F12"/>
</svg>
