<svg width="72" height="72" viewBox="0 0 72 72" fill="none" xmlns="http://www.w3.org/2000/svg">
<path d="M3.1113 24C1.74529 27.7429 1 31.7844 1 36C1 55.33 16.67 71 36 71C55.33 71 71 55.33 71 36C71 16.67 55.33 1 36 1" stroke="#261F12" stroke-width="2"/>
<path d="M3.11133 24C8.00894 10.5805 20.8857 1 36 1" stroke="#E7E1DA" stroke-width="2"/>
<path d="M21.3333 48V34.6667L30.6667 28L40 34.6667L39.05 35.6167L38.1 36.5667L30.6667 31.2667L24 36V45.3333H26.6667V38.6667H34.6667V48H32V41.3333H29.3333V48H21.3333ZM50.6667 24V37.5C50.2889 37.1 49.8778 36.7389 49.4333 36.4167C48.9889 36.0944 48.5111 35.8111 48 35.5667V26.6667H36V28.5333L33.3333 26.6V24H50.6667ZM42.6667 32H45.3333V29.3333H42.6667V32ZM44 50.6667C42.1556 50.6667 40.5833 50.0167 39.2833 48.7167C37.9833 47.4167 37.3333 45.8444 37.3333 44C37.3333 42.1556 37.9833 40.5833 39.2833 39.2833C40.5833 37.9833 42.1556 37.3333 44 37.3333C45.8444 37.3333 47.4167 37.9833 48.7167 39.2833C50.0167 40.5833 50.6667 42.1556 50.6667 44C50.6667 45.8444 50.0167 47.4167 48.7167 48.7167C47.4167 50.0167 45.8444 50.6667 44 50.6667ZM43.3333 48H44.6667V44.6667H48V43.3333H44.6667V40H43.3333V43.3333H40V44.6667H43.3333V48Z" fill="#261F12"/>
</svg>
