<svg width="72" height="72" viewBox="0 0 72 72" fill="none" xmlns="http://www.w3.org/2000/svg">
<path d="M56.5 64.3713C65.2849 58.0126 71 47.6737 71 36C71 16.67 55.33 1 36 1" stroke="#261F12" stroke-width="2"/>
<path d="M36 1C16.67 1 1 16.67 1 36C1 55.33 16.67 71 36 71C43.6563 71 50.7384 68.5417 56.5 64.3713" stroke="#E7E1DA" stroke-width="2"/>
<path d="M25.3333 47.9998V45.3332H41.3333V47.9998H25.3333ZM32.8666 41.5332L25.3333 33.9998L28.1333 31.1332L35.7333 38.6665L32.8666 41.5332ZM41.3333 33.0665L33.8 25.4665L36.6666 22.6665L44.2 30.1998L41.3333 33.0665ZM47.4666 46.6665L30.0666 29.2665L31.9333 27.3998L49.3333 44.7998L47.4666 46.6665Z" fill="#261F12"/>
</svg>
