<svg width="70" height="70" viewBox="0 0 70 70" fill="none" xmlns="http://www.w3.org/2000/svg">
<circle cx="35" cy="35" r="34" stroke="#261F12" stroke-width="2"/>
<path d="M35 40.3335C36.6667 40.3335 38.0834 39.7502 39.25 38.5835C40.4167 37.4168 41 36.0002 41 34.3335C41 32.6668 40.4167 31.2502 39.25 30.0835C38.0834 28.9168 36.6667 28.3335 35 28.3335C33.3334 28.3335 31.9167 28.9168 30.75 30.0835C29.5834 31.2502 29 32.6668 29 34.3335C29 36.0002 29.5834 37.4168 30.75 38.5835C31.9167 39.7502 33.3334 40.3335 35 40.3335ZM35 37.9335C34 37.9335 33.15 37.5835 32.45 36.8835C31.75 36.1835 31.4 35.3335 31.4 34.3335C31.4 33.3335 31.75 32.4835 32.45 31.7835C33.15 31.0835 34 30.7335 35 30.7335C36 30.7335 36.85 31.0835 37.55 31.7835C38.25 32.4835 38.6 33.3335 38.6 34.3335C38.6 35.3335 38.25 36.1835 37.55 36.8835C36.85 37.5835 36 37.9335 35 37.9335ZM35 44.3335C31.7556 44.3335 28.8 43.4279 26.1334 41.6168C23.4667 39.8057 21.5334 37.3779 20.3334 34.3335C21.5334 31.2891 23.4667 28.8613 26.1334 27.0502C28.8 25.2391 31.7556 24.3335 35 24.3335C38.2445 24.3335 41.2 25.2391 43.8667 27.0502C46.5334 28.8613 48.4667 31.2891 49.6667 34.3335C48.4667 37.3779 46.5334 39.8057 43.8667 41.6168C41.2 43.4279 38.2445 44.3335 35 44.3335ZM35 41.6668C37.5112 41.6668 39.8167 41.0057 41.9167 39.6835C44.0167 38.3613 45.6223 36.5779 46.7334 34.3335C45.6223 32.0891 44.0167 30.3057 41.9167 28.9835C39.8167 27.6613 37.5112 27.0002 35 27.0002C32.4889 27.0002 30.1834 27.6613 28.0834 28.9835C25.9834 30.3057 24.3778 32.0891 23.2667 34.3335C24.3778 36.5779 25.9834 38.3613 28.0834 39.6835C30.1834 41.0057 32.4889 41.6668 35 41.6668Z" fill="#261F12"/>
</svg>
