<svg width="72" height="72" viewBox="0 0 72 72" fill="none" xmlns="http://www.w3.org/2000/svg">
<path d="M27.5333 33.3668L30.1333 34.4668C30.4444 33.8446 30.7667 33.2446 31.1 32.6668C31.4333 32.089 31.8 31.5113 32.2 30.9335L30.3333 30.5668L27.5333 33.3668ZM32.2667 36.1335L36.0667 39.9001C37 39.5446 38 39.0001 39.0667 38.2668C40.1333 37.5335 41.1333 36.7001 42.0667 35.7668C43.6222 34.2113 44.8389 32.4835 45.7167 30.5835C46.5944 28.6835 46.9778 26.9335 46.8667 25.3335C45.2667 25.2224 43.5111 25.6057 41.6 26.4835C39.6889 27.3613 37.9556 28.5779 36.4 30.1335C35.4667 31.0668 34.6333 32.0668 33.9 33.1335C33.1667 34.2001 32.6222 35.2001 32.2667 36.1335ZM38.2 33.9668C37.6889 33.4557 37.4333 32.8279 37.4333 32.0835C37.4333 31.339 37.6889 30.7113 38.2 30.2001C38.7111 29.689 39.3444 29.4335 40.1 29.4335C40.8556 29.4335 41.4889 29.689 42 30.2001C42.5111 30.7113 42.7667 31.339 42.7667 32.0835C42.7667 32.8279 42.5111 33.4557 42 33.9668C41.4889 34.4779 40.8556 34.7335 40.1 34.7335C39.3444 34.7335 38.7111 34.4779 38.2 33.9668ZM38.8333 44.6668L41.6333 41.8668L41.2667 40.0001C40.6889 40.4001 40.1111 40.7613 39.5333 41.0835C38.9556 41.4057 38.3556 41.7224 37.7333 42.0335L38.8333 44.6668ZM49.2667 22.9001C49.6889 25.589 49.4278 28.2057 48.4833 30.7501C47.5389 33.2946 45.9111 35.7224 43.6 38.0335L44.2667 41.3335C44.3556 41.7779 44.3333 42.2113 44.2 42.6335C44.0667 43.0557 43.8444 43.4224 43.5333 43.7335L37.9333 49.3335L35.1333 42.7668L29.4333 37.0668L22.8667 34.2668L28.4333 28.6668C28.7444 28.3557 29.1167 28.1335 29.55 28.0001C29.9833 27.8668 30.4222 27.8446 30.8667 27.9335L34.1667 28.6001C36.4778 26.289 38.9 24.6557 41.4333 23.7001C43.9667 22.7446 46.5778 22.4779 49.2667 22.9001ZM25.2333 41.3001C26.0111 40.5224 26.9611 40.1279 28.0833 40.1168C29.2056 40.1057 30.1556 40.489 30.9333 41.2668C31.7111 42.0446 32.0944 42.9946 32.0833 44.1168C32.0722 45.239 31.6778 46.189 30.9 46.9668C30.3444 47.5224 29.4167 48.0001 28.1167 48.4001C26.8167 48.8001 25.0222 49.1557 22.7333 49.4668C23.0444 47.1779 23.4 45.3835 23.8 44.0835C24.2 42.7835 24.6778 41.8557 25.2333 41.3001ZM27.1333 43.1668C26.9111 43.389 26.6889 43.7946 26.4667 44.3835C26.2444 44.9724 26.0889 45.5668 26 46.1668C26.6 46.0779 27.1944 45.9279 27.7833 45.7168C28.3722 45.5057 28.7778 45.289 29 45.0668C29.2667 44.8001 29.4111 44.4779 29.4333 44.1001C29.4556 43.7224 29.3333 43.4001 29.0667 43.1335C28.8 42.8668 28.4778 42.739 28.1 42.7501C27.7222 42.7613 27.4 42.9001 27.1333 43.1668Z" fill="#261F12"/>
<path d="M61.5 59.9741C67.3908 53.7107 71 45.2769 71 36C71 16.67 55.33 1 36 1" stroke="#261F12" stroke-width="2"/>
<path d="M36 1C16.67 1 1 16.67 1 36C1 55.33 16.67 71 36 71C46.0531 71 55.1163 66.7615 61.5 59.9741" stroke="#E7E1DA" stroke-width="2"/>
</svg>
