<svg width="72" height="72" viewBox="0 0 72 72" fill="none" xmlns="http://www.w3.org/2000/svg">
<path d="M11.005 60.5C17.3572 66.9798 26.2091 71 36 71C55.33 71 71 55.33 71 36C71 16.67 55.33 1 36 1" stroke="#261F12" stroke-width="2"/>
<path d="M11.005 60.5C4.81611 54.1869 1 45.5391 1 36C1 16.67 16.67 1 36 1" stroke="#E7E1DA" stroke-width="2"/>
<path d="M21.3333 46.6668V41.3335C21.3333 40.5779 21.5944 39.9446 22.1166 39.4335C22.6389 38.9224 23.2666 38.6668 24 38.6668H28.3666C28.8111 38.6668 29.2333 38.7779 29.6333 39.0002C30.0333 39.2224 30.3555 39.5224 30.6 39.9002C31.2444 40.7668 32.0389 41.4446 32.9833 41.9335C33.9278 42.4224 34.9333 42.6668 36 42.6668C37.0889 42.6668 38.1055 42.4224 39.05 41.9335C39.9944 41.4446 40.7778 40.7668 41.4 39.9002C41.6889 39.5224 42.0278 39.2224 42.4166 39.0002C42.8055 38.7779 43.2111 38.6668 43.6333 38.6668H48C48.7555 38.6668 49.3889 38.9224 49.9 39.4335C50.4111 39.9446 50.6666 40.5779 50.6666 41.3335V46.6668H41.3333V43.6335C40.5555 44.1891 39.7166 44.6113 38.8166 44.9002C37.9166 45.1891 36.9778 45.3335 36 45.3335C35.0444 45.3335 34.1111 45.1835 33.2 44.8835C32.2889 44.5835 31.4444 44.1557 30.6666 43.6002V46.6668H21.3333ZM25.3333 37.3335C24.2222 37.3335 23.2778 36.9446 22.5 36.1668C21.7222 35.3891 21.3333 34.4446 21.3333 33.3335C21.3333 32.2002 21.7222 31.2502 22.5 30.4835C23.2778 29.7168 24.2222 29.3335 25.3333 29.3335C26.4666 29.3335 27.4166 29.7168 28.1833 30.4835C28.95 31.2502 29.3333 32.2002 29.3333 33.3335C29.3333 34.4446 28.95 35.3891 28.1833 36.1668C27.4166 36.9446 26.4666 37.3335 25.3333 37.3335ZM46.6666 37.3335C45.5555 37.3335 44.6111 36.9446 43.8333 36.1668C43.0555 35.3891 42.6666 34.4446 42.6666 33.3335C42.6666 32.2002 43.0555 31.2502 43.8333 30.4835C44.6111 29.7168 45.5555 29.3335 46.6666 29.3335C47.8 29.3335 48.75 29.7168 49.5166 30.4835C50.2833 31.2502 50.6666 32.2002 50.6666 33.3335C50.6666 34.4446 50.2833 35.3891 49.5166 36.1668C48.75 36.9446 47.8 37.3335 46.6666 37.3335Z" fill="#261F12"/>
<path d="M32.8 30.6665C32.58 30.6665 32.3917 30.584 32.235 30.4191C32.0783 30.2542 32 30.056 32 29.8244V25.1928C32 24.9612 32.0783 24.763 32.235 24.5981C32.3917 24.4332 32.58 24.3507 32.8 24.3507H34.4V23.5086C34.4 23.277 34.4783 23.0788 34.635 22.9139C34.7917 22.749 34.98 22.6665 35.2 22.6665H36.8C37.02 22.6665 37.2083 22.749 37.365 22.9139C37.5217 23.0788 37.6 23.277 37.6 23.5086V24.3507H39.2C39.42 24.3507 39.6083 24.4332 39.765 24.5981C39.9217 24.763 40 24.9612 40 25.1928V29.8244C40 30.056 39.9217 30.2542 39.765 30.4191C39.6083 30.584 39.42 30.6665 39.2 30.6665H32.8ZM32.8 29.8244H39.2V25.1928H32.8V29.8244ZM35.2 24.3507H36.8V23.5086H35.2V24.3507Z" fill="#261F12"/>
<path d="M32.8 29.8244H39.2V25.1928H32.8V29.8244Z" fill="#261F12"/>
</svg>
