<svg width="31" height="31" viewBox="0 0 31 31" fill="none" xmlns="http://www.w3.org/2000/svg">
<path d="M11.625 3.875H2.90625C1.30365 3.875 0 5.17865 0 6.78125V15.5C0 17.1026 1.30365 18.4062 2.90625 18.4062H6.81673L5.3461 25.9713C5.29075 26.2556 5.36549 26.5493 5.54949 26.7726C5.7335 26.9959 6.00738 27.125 6.29688 27.125H9.43538C10.2778 27.125 11.0266 26.5739 11.2816 25.7759L14.1017 19.0865C14.1178 19.0481 14.1315 19.0089 14.1424 18.9692C14.4007 18.0411 14.5312 17.0813 14.5312 16.1168V6.78125C14.5312 5.17865 13.2276 3.875 11.625 3.875Z" fill="#261F12"/>
<path d="M28.0938 3.875H19.375C17.7724 3.875 16.4688 5.17865 16.4688 6.78125V15.5C16.4688 17.1026 17.7724 18.4062 19.375 18.4062H23.2859L21.8149 25.9713C21.759 26.2556 21.8338 26.5493 22.0183 26.7726C22.2018 26.9959 22.4761 27.125 22.7656 27.125H25.9046C26.7475 27.125 27.4958 26.5739 27.7503 25.7755L30.5705 19.0864C30.5866 19.0481 30.5998 19.0089 30.6112 18.9691C30.8694 18.0401 31 17.0804 31 16.1168V6.78125C31 5.17865 29.6964 3.875 28.0938 3.875Z" fill="#261F12"/>
</svg>
