<svg width="22" height="22" viewBox="0 0 22 22" fill="none" xmlns="http://www.w3.org/2000/svg">
<path d="M10.9715 14.6287C11.9414 14.6287 12.8716 14.2434 13.5575 13.5576C14.2433 12.8717 14.6286 11.9415 14.6286 10.9716C14.6286 10.0017 14.2433 9.07145 13.5575 8.38561C12.8716 7.69976 11.9414 7.31445 10.9715 7.31445C10.0016 7.31445 9.07135 7.69976 8.3855 8.38561C7.69965 9.07145 7.31435 10.0017 7.31435 10.9716C7.31435 11.9415 7.69965 12.8717 8.3855 13.5576C9.07135 14.2434 10.0016 14.6287 10.9715 14.6287Z" stroke="#261F12" stroke-width="2" stroke-linecap="round" stroke-linejoin="round"/>
<path d="M2.74292 14.6289V7.31459C2.74292 6.10217 3.22455 4.93941 4.08186 4.0821C4.93917 3.2248 6.10193 2.74316 7.31435 2.74316H14.6286C15.8411 2.74316 17.0038 3.2248 17.8611 4.0821C18.7184 4.93941 19.2001 6.10217 19.2001 7.31459V14.6289C19.2001 15.8413 18.7184 17.0041 17.8611 17.8614C17.0038 18.7187 15.8411 19.2003 14.6286 19.2003H7.31435C6.10193 19.2003 4.93917 18.7187 4.08186 17.8614C3.22455 17.0041 2.74292 15.8413 2.74292 14.6289Z" stroke="#261F12" stroke-width="2"/>
<path d="M16.0001 5.95274L16.0095 5.94238" stroke="#261F12" stroke-width="2" stroke-linecap="round" stroke-linejoin="round"/>
</svg>
