<svg width="22" height="22" viewBox="0 0 22 22" fill="none" xmlns="http://www.w3.org/2000/svg">
<path d="M10.9715 20.1138C9.70671 20.1138 8.51814 19.8738 7.40576 19.3938C6.29338 18.9138 5.32576 18.2624 4.5029 17.4396C3.68004 16.6167 3.02861 15.6491 2.54861 14.5367C2.06861 13.4243 1.82861 12.2357 1.82861 10.971C1.82861 9.70622 2.06861 8.51765 2.54861 7.40527C3.02861 6.29289 3.68004 5.32527 4.5029 4.50241C5.32576 3.67955 6.29338 3.02813 7.40576 2.54813C8.51814 2.06813 9.70671 1.82812 10.9715 1.82812C12.2362 1.82812 13.4248 2.06813 14.5372 2.54813C15.6496 3.02813 16.6172 3.67955 17.44 4.50241C18.2629 5.32527 18.9143 6.29289 19.3943 7.40527C19.8743 8.51765 20.1143 9.70622 20.1143 10.971V12.2967C20.1143 13.1957 19.8058 13.9615 19.1886 14.5938C18.5715 15.2262 17.8134 15.5424 16.9143 15.5424C16.381 15.5424 15.8781 15.4281 15.4058 15.1996C14.9334 14.971 14.5372 14.6434 14.2172 14.2167C13.7753 14.6586 13.2762 14.99 12.72 15.211C12.1639 15.4319 11.581 15.5424 10.9715 15.5424C9.70671 15.5424 8.62861 15.0967 7.73719 14.2053C6.84576 13.3138 6.40004 12.2357 6.40004 10.971C6.40004 9.70622 6.84576 8.62813 7.73719 7.7367C8.62861 6.84527 9.70671 6.39955 10.9715 6.39955C12.2362 6.39955 13.3143 6.84527 14.2058 7.7367C15.0972 8.62813 15.5429 9.70622 15.5429 10.971V12.2967C15.5429 12.6929 15.6724 13.0281 15.9315 13.3024C16.1905 13.5767 16.5181 13.7138 16.9143 13.7138C17.3105 13.7138 17.6381 13.5767 17.8972 13.3024C18.1562 13.0281 18.2858 12.6929 18.2858 12.2967V10.971C18.2858 8.92908 17.5772 7.19955 16.16 5.78241C14.7429 4.36527 13.0134 3.6567 10.9715 3.6567C8.92957 3.6567 7.20004 4.36527 5.7829 5.78241C4.36576 7.19955 3.65718 8.92908 3.65718 10.971C3.65718 13.0129 4.36576 14.7424 5.7829 16.1596C7.20004 17.5767 8.92957 18.2853 10.9715 18.2853H15.5429V20.1138H10.9715ZM10.9715 13.7138C11.7334 13.7138 12.381 13.4472 12.9143 12.9138C13.4477 12.3805 13.7143 11.7329 13.7143 10.971C13.7143 10.2091 13.4477 9.56146 12.9143 9.02813C12.381 8.49479 11.7334 8.22813 10.9715 8.22813C10.2096 8.22813 9.56195 8.49479 9.02861 9.02813C8.49528 9.56146 8.22861 10.2091 8.22861 10.971C8.22861 11.7329 8.49528 12.3805 9.02861 12.9138C9.56195 13.4472 10.2096 13.7138 10.9715 13.7138Z" fill="#261F12"/>
</svg>
