<svg width="22" height="22" viewBox="0 0 22 22" fill="none" xmlns="http://www.w3.org/2000/svg">
<path d="M18.2402 19.2003C18.5145 19.2003 18.743 19.1089 18.9259 18.926C19.1088 18.7432 19.2002 18.5146 19.2002 18.2403V14.5374C19.2002 14.3394 19.1316 14.1603 18.9945 14.0003C18.8573 13.8403 18.6821 13.7298 18.4688 13.6689L15.3145 13.0289C15.1011 12.9984 14.884 13.0174 14.663 13.086C14.4421 13.1546 14.263 13.2574 14.1259 13.3946L11.9773 15.5432C11.3983 15.2079 10.8497 14.8384 10.3316 14.4346C9.81351 14.0308 9.31828 13.5927 8.8459 13.1203C8.34304 12.6327 7.88209 12.126 7.46304 11.6003C7.04399 11.0746 6.68209 10.5298 6.37733 9.96602L8.59447 7.72602C8.71637 7.60412 8.80018 7.45935 8.8459 7.29174C8.89161 7.12412 8.89923 6.9184 8.86875 6.67459L8.27447 3.47459C8.24399 3.2765 8.14494 3.10507 7.97733 2.96031C7.80971 2.81555 7.61923 2.74316 7.4059 2.74316H3.70304C3.42875 2.74316 3.20018 2.83459 3.01733 3.01745C2.83447 3.20031 2.74304 3.42888 2.74304 3.70316C2.74304 5.60793 3.15828 7.48983 3.98875 9.34888C4.81923 11.2079 5.99637 12.8994 7.52018 14.4232C9.04399 15.947 10.7354 17.1241 12.5945 17.9546C14.4535 18.7851 16.3354 19.2003 18.2402 19.2003ZM5.53161 8.22888C5.27256 7.63459 5.07447 7.03269 4.93732 6.42316C4.80018 5.81364 4.69351 5.1965 4.61732 4.57174H6.62875L7.04018 6.72031L5.53161 8.22888ZM13.7145 16.366L15.223 14.8574L17.3716 15.3146V17.326C16.7468 17.2803 16.1297 17.1736 15.5202 17.006C14.9107 16.8384 14.3088 16.6251 13.7145 16.366Z" fill="#261F12"/>
</svg>
